<svg width="86" height="22" viewBox="0 0 86 22" fill="none" xmlns="http://www.w3.org/2000/svg">
<g clip-path="url(#clip0)">
<path d="M64.1957 1.80224C63.464 2.46186 62.9379 3.33605 62.5709 4.2592C62.1252 5.40727 61.9607 6.6891 62.2013 7.90763C62.7646 7.34314 63.0951 6.59674 63.5324 5.93473C64.0669 5.15887 64.7294 4.4889 65.4176 3.86112C65.5664 3.73413 65.697 3.58246 65.8642 3.48056C65.8476 3.57092 65.7904 3.64218 65.7385 3.71343C65.0664 4.65092 64.3048 5.52311 63.7311 6.53305C63.2238 7.42634 62.8465 8.3897 62.4668 9.34629C62.3707 9.29136 62.3277 9.18029 62.2597 9.09789C61.4915 8.06248 60.5285 7.17555 59.4211 6.54818C58.3635 5.94667 57.1619 5.59556 55.9515 5.61786C55.5411 5.63219 55.1295 5.6294 54.7226 5.68832C54.1292 5.76515 53.5463 5.92279 52.9899 6.1493C50.7753 7.05215 48.9796 9.01071 48.2518 11.3614C48.0723 11.9044 47.9847 12.4732 47.9152 13.0405C47.8875 13.3052 47.8936 13.5727 47.8867 13.839C47.894 14.13 47.8694 14.4262 47.9263 14.7136C48.0754 16.0528 48.5627 17.3461 49.3128 18.4464C50.4175 20.0842 52.0964 21.3274 53.9894 21.7601C54.5223 21.8743 55.0603 21.9834 55.6064 21.9961C57.3583 22.0551 59.0971 21.4173 60.4947 20.3381C61.7774 19.3521 62.7946 17.9763 63.3053 16.4027C63.5666 15.6181 63.6592 14.7873 63.6934 13.9625C63.7065 12.7551 63.3414 11.5935 63.1965 10.4044C63.1347 10.039 63.1781 9.66476 63.25 9.30449C63.3395 8.87377 63.5689 8.44742 63.9586 8.24042C65.0276 7.71217 66.1347 7.25517 67.1419 6.60152C67.8048 6.1704 68.423 5.64891 68.9011 5.00242C69.29 4.46262 69.4802 3.79544 69.539 3.13104C69.5674 2.52118 69.562 1.90734 69.4798 1.30225C69.4548 0.994533 69.3695 0.695176 69.2596 0.409751C69.1758 0.197972 68.9945 -0.0157984 68.7547 0.000921015C67.1011 0.0554582 65.443 0.661339 64.1957 1.80224Z" fill="white"/>
<path d="M27.0493 8.10835C26.2186 8.19393 25.3974 8.43398 24.6676 8.85793C23.7392 9.39893 22.9461 10.207 22.4554 11.1907C22.1084 11.8857 21.9231 12.6608 21.8774 13.4403C21.8209 14.3853 21.9293 15.3534 22.2824 16.2324C22.9626 17.9346 24.5155 19.1945 26.2447 19.5723C27.7979 19.9103 29.4695 19.7228 30.8902 18.9768C31.3874 18.718 31.8558 18.3896 32.2363 17.9661C32.2405 16.2997 32.237 14.6337 32.2382 12.9677C31.3063 12.9677 30.3745 12.9673 29.4426 12.9677C29.4426 14.1938 29.4414 15.4195 29.443 16.6456C29.2362 16.818 28.9972 16.9474 28.7436 17.0294C28.211 17.1962 27.6377 17.2141 27.0912 17.1134C26.3584 16.974 25.6883 16.5254 25.254 15.8996C24.8905 15.3737 24.7337 14.7217 24.7191 14.082C24.6984 13.451 24.8167 12.8021 25.138 12.2592C25.523 11.6055 26.1528 11.119 26.858 10.8973C27.5032 10.6927 28.1941 10.6847 28.857 10.7914C29.6071 10.9128 30.3249 11.1999 30.9893 11.576C30.9897 10.6732 30.9885 9.77034 30.9897 8.86749C29.7904 8.20468 28.397 7.95707 27.0493 8.10835Z" fill="white"/>
<path d="M70.0529 8.136C69.2782 8.24548 68.4986 8.49866 67.8818 9.01178C67.4433 9.37324 67.114 9.87522 66.9576 10.4333C66.7605 11.1316 66.7858 11.8899 67.0072 12.579C67.094 12.8389 67.1897 13.1053 67.3707 13.3127C67.6289 13.6192 67.9425 13.8688 68.2584 14.1084C68.6204 14.3449 69.0304 14.4842 69.4247 14.651C69.7348 14.7887 70.0652 14.866 70.3869 14.9699C70.8561 15.1184 71.3291 15.2549 71.7945 15.4185C72.0293 15.4922 72.2402 15.6355 72.4108 15.8166C72.5696 15.9906 72.5899 16.2565 72.5265 16.4778C72.4643 16.6868 72.2933 16.8389 72.1061 16.9261C71.8002 17.0694 71.4602 17.106 71.1285 17.1223C70.2478 17.1601 69.3701 16.9611 68.5535 16.6279C67.931 16.3751 67.3196 16.0582 66.8247 15.5853C66.8247 16.569 66.8247 17.5526 66.8247 18.5363C67.6409 19.1063 68.5866 19.4626 69.5572 19.6191C70.3192 19.7393 71.0982 19.7723 71.8656 19.6844C72.6072 19.5948 73.3431 19.3615 73.9679 18.9296C74.4463 18.6004 74.8644 18.1593 75.1184 17.6211C75.4366 16.9519 75.4927 16.1749 75.3763 15.4468C75.2775 14.8302 74.9782 14.2438 74.509 13.8449C73.9514 13.3576 73.2935 13.0097 72.6164 12.7374C71.894 12.4413 71.127 12.2888 70.3957 12.0201C70.1782 11.9437 69.9434 11.8728 69.7828 11.6933C69.6053 11.4894 69.6694 11.1479 69.8616 10.9787C70.0725 10.792 70.3573 10.7351 70.6255 10.7008C71.3414 10.6252 72.0658 10.7263 72.7582 10.9182C73.4488 11.1133 74.1251 11.3816 74.7384 11.7681C74.7384 10.8438 74.7384 9.91901 74.7384 8.99467C73.3166 8.20049 71.6496 7.92422 70.0529 8.136Z" fill="white"/>
<path d="M80.8952 8.10378C80.1639 8.17663 79.428 8.36333 78.7951 8.76221C78.2733 9.08784 77.8425 9.57947 77.6173 10.169C77.3284 10.9234 77.3295 11.7817 77.5685 12.5504C77.655 12.8115 77.7472 13.081 77.9251 13.2928C78.1488 13.5667 78.4216 13.7908 78.696 14.0077C78.9573 14.2251 79.2739 14.3505 79.581 14.4819C79.8888 14.6025 80.1893 14.7474 80.5094 14.8334C80.9955 14.9799 81.4804 15.1327 81.9654 15.284C82.2947 15.3923 82.6463 15.483 82.9038 15.7386C83.197 15.9703 83.2012 16.4643 82.9514 16.7306C82.8181 16.8723 82.6378 16.9547 82.4576 17.0105C82.1248 17.108 81.7763 17.1271 81.4328 17.1259C80.6116 17.1195 79.8019 16.9117 79.0434 16.5949C78.45 16.3473 77.8683 16.038 77.3952 15.5849C77.3952 16.5686 77.3952 17.5523 77.3952 18.5359C78.2214 19.1139 79.1806 19.471 80.1639 19.6251C80.886 19.7361 81.6222 19.7676 82.3496 19.6943C83.1382 19.6107 83.924 19.3675 84.5815 18.8994C85.0664 18.5574 85.4845 18.0964 85.7266 17.5383C86.0141 16.8807 86.0598 16.1299 85.943 15.4245C85.84 14.8063 85.5326 14.2215 85.0584 13.8266C84.5054 13.3489 83.856 13.0066 83.1877 12.7379C82.4642 12.4409 81.6956 12.2884 80.9636 12.0189C80.7468 11.9433 80.5136 11.872 80.3533 11.6937C80.1762 11.4903 80.2396 11.1483 80.4317 10.9791C80.6323 10.8 80.9025 10.7411 81.1584 10.7053C81.8854 10.6213 82.6229 10.7236 83.3272 10.9178C84.0182 11.1133 84.6952 11.3808 85.3085 11.7685C85.3097 10.8438 85.3085 9.91944 85.3089 8.99509C83.9678 8.2447 82.4077 7.95888 80.8952 8.10378Z" fill="white"/>
<path d="M13.7934 8.22774C12.2809 11.9828 10.7695 15.7384 9.25781 19.4935C10.2358 19.4935 11.2138 19.4931 12.1917 19.4935C12.4953 18.7072 12.7985 17.921 13.1017 17.1348C14.4374 17.1348 15.7732 17.1352 17.1089 17.1348C17.4132 17.9206 17.7153 18.7076 18.0192 19.4935C19.013 19.4931 20.0063 19.4935 20.9997 19.4935C19.4887 15.7384 17.9754 11.9844 16.466 8.22893C15.5749 8.22615 14.6841 8.22854 13.7934 8.22774Z" fill="white"/>
<path d="M0 8.30762C0 12.0372 0 15.7665 0 19.4961C2.65302 19.4961 5.30605 19.4961 7.95946 19.4961C7.95946 18.6534 7.95907 17.811 7.95946 16.9683C6.23177 16.9683 4.50407 16.9683 2.77638 16.9683C2.77638 14.0814 2.77638 11.1945 2.77638 8.30762C1.85105 8.30762 0.925331 8.30762 0 8.30762Z" fill="white"/>
<path d="M34.7383 8.30772C34.7383 12.0366 34.7383 15.765 34.7383 19.4938C35.6636 19.4938 36.5893 19.4938 37.5147 19.4938C37.515 17.2212 37.5143 14.9481 37.515 12.6755C38.1779 13.6751 38.8404 14.675 39.5033 15.6746C40.0136 15.6746 40.5243 15.6746 41.035 15.6746C41.6771 14.6746 42.3192 13.6747 42.9617 12.6747C42.9617 14.9477 42.9617 17.2208 42.9617 19.4938C43.8809 19.4938 44.7997 19.4938 45.7189 19.4938C45.7193 15.765 45.7189 12.0366 45.7193 8.30772C44.8047 8.30772 43.8901 8.30732 42.9756 8.30811C42.061 9.74002 41.1457 11.1711 40.2303 12.6026C39.32 11.1715 38.4104 9.73922 37.5004 8.30772C36.5797 8.30772 35.659 8.30772 34.7383 8.30772Z" fill="white"/>
<path d="M55.0549 8.98208C56.3207 8.7918 57.6829 9.08876 58.6901 9.92912C59.5286 10.5824 60.1235 11.5485 60.3794 12.5994C60.5216 13.1456 60.5408 13.7165 60.505 14.2786C60.3905 15.4214 59.8883 16.5253 59.0775 17.3155C58.0422 18.3501 56.5351 18.9047 55.1048 18.6435C53.9747 18.5018 52.9322 17.8625 52.2009 16.9688C51.3516 15.9445 50.8928 14.5465 51.0938 13.1994C51.2844 11.5298 52.3746 10.0091 53.8559 9.32602C54.2356 9.14848 54.6441 9.04657 55.0549 8.98208Z" fill="white"/>
<path d="M13.9844 14.8356C14.359 13.838 14.7326 12.84 15.1088 11.8428C15.4834 12.8404 15.8577 13.838 16.232 14.8356C15.483 14.8356 14.7337 14.8356 13.9844 14.8356Z" fill="white"/>
<path d="M64.1957 1.80224C65.443 0.661339 67.1011 0.0554582 68.7547 0.000921015C68.9945 -0.0157984 69.1758 0.197972 69.2596 0.409751C69.3695 0.695176 69.4548 0.994533 69.4798 1.30225C69.562 1.90734 69.5674 2.52118 69.539 3.13104C69.4802 3.79544 69.29 4.46262 68.9011 5.00242C68.423 5.64891 67.8048 6.1704 67.1419 6.60152C66.1347 7.25517 65.0276 7.71217 63.9586 8.24042C63.5689 8.44742 63.3395 8.87377 63.25 9.30449C63.1781 9.66476 63.1347 10.039 63.1965 10.4044C63.3414 11.5935 63.7065 12.7551 63.6934 13.9625C63.6592 14.7873 63.5666 15.6181 63.3053 16.4027C62.7946 17.9763 61.7774 19.3521 60.4947 20.3381C59.0971 21.4173 57.3583 22.0551 55.6064 21.9961C55.0603 21.9834 54.5223 21.8743 53.9894 21.7601C52.0964 21.3274 50.4175 20.0842 49.3128 18.4464C48.5627 17.3461 48.0754 16.0528 47.9263 14.7136C47.8694 14.4262 47.894 14.13 47.8867 13.839C47.8936 13.5727 47.8875 13.3052 47.9152 13.0405C47.9847 12.4732 48.0723 11.9044 48.2518 11.3614C48.9796 9.01071 50.7753 7.05215 52.9899 6.1493C53.5463 5.92279 54.1292 5.76515 54.7226 5.68832C55.1295 5.6294 55.5411 5.63219 55.9515 5.61786C57.1619 5.59556 58.3635 5.94667 59.4211 6.54818C60.5285 7.17555 61.4915 8.06248 62.2597 9.09789C62.3277 9.18029 62.3707 9.29136 62.4668 9.34629C62.8465 8.3897 63.2238 7.42634 63.7311 6.53305C64.3048 5.52311 65.0664 4.65092 65.7385 3.71343C65.7904 3.64218 65.8476 3.57092 65.8642 3.48056C65.697 3.58246 65.5664 3.73413 65.4176 3.86112C64.7294 4.4889 64.0669 5.15887 63.5324 5.93473C63.0951 6.59674 62.7646 7.34314 62.2013 7.90763C61.9607 6.6891 62.1252 5.40727 62.5709 4.2592C62.9379 3.33605 63.464 2.46186 64.1957 1.80224ZM55.0553 8.98205C54.6445 9.04654 54.2361 9.14845 53.8564 9.32599C52.375 10.0091 51.2848 11.5298 51.0942 13.1993C50.8933 14.5464 51.3521 15.9445 52.2013 16.9688C52.9326 17.8625 53.9751 18.5018 55.1053 18.6435C56.5356 18.9046 58.0427 18.3501 59.0779 17.3155C59.8887 16.5253 60.391 15.4214 60.5055 14.2785C60.5412 13.7164 60.522 13.1456 60.3798 12.5994C60.1239 11.5485 59.529 10.5823 58.6906 9.92908C57.6834 9.08873 56.3211 8.79177 55.0553 8.98205Z" fill="#28693F"/>
<path d="M27.0493 8.10835C28.397 7.95707 29.7904 8.20468 30.9897 8.86749C30.9885 9.77034 30.9897 10.6732 30.9893 11.576C30.3249 11.1999 29.6071 10.9128 28.857 10.7914C28.1941 10.6847 27.5032 10.6927 26.858 10.8973C26.1528 11.119 25.523 11.6055 25.138 12.2592C24.8167 12.8021 24.6984 13.451 24.7191 14.082C24.7337 14.7217 24.8905 15.3737 25.254 15.8996C25.6883 16.5254 26.3584 16.974 27.0912 17.1134C27.6377 17.2141 28.211 17.1962 28.7436 17.0294C28.9972 16.9474 29.2362 16.818 29.443 16.6456C29.4414 15.4195 29.4426 14.1938 29.4426 12.9677C30.3745 12.9673 31.3063 12.9677 32.2382 12.9677C32.237 14.6337 32.2405 16.2997 32.2363 17.9661C31.8558 18.3896 31.3874 18.718 30.8902 18.9768C29.4695 19.7228 27.7979 19.9103 26.2447 19.5723C24.5155 19.1945 22.9626 17.9346 22.2824 16.2324C21.9293 15.3534 21.8209 14.3853 21.8774 13.4403C21.9231 12.6608 22.1084 11.8857 22.4554 11.1907C22.9461 10.207 23.7392 9.39893 24.6676 8.85793C25.3974 8.43398 26.2186 8.19393 27.0493 8.10835Z" fill="#1B1B1B"/>
<path d="M70.0529 8.136C71.6496 7.92422 73.3166 8.20049 74.7384 8.99467C74.7384 9.91901 74.7384 10.8438 74.7384 11.7681C74.1251 11.3816 73.4488 11.1133 72.7582 10.9182C72.0658 10.7263 71.3414 10.6252 70.6255 10.7008C70.3573 10.7351 70.0725 10.792 69.8616 10.9787C69.6694 11.1479 69.6053 11.4894 69.7828 11.6933C69.9434 11.8728 70.1782 11.9437 70.3957 12.0201C71.127 12.2888 71.894 12.4413 72.6164 12.7374C73.2935 13.0097 73.9514 13.3576 74.509 13.8449C74.9782 14.2438 75.2775 14.8302 75.3763 15.4468C75.4927 16.1749 75.4366 16.9519 75.1184 17.6211C74.8644 18.1593 74.4463 18.6004 73.9679 18.9296C73.3431 19.3615 72.6072 19.5948 71.8656 19.6844C71.0982 19.7723 70.3192 19.7393 69.5572 19.6191C68.5866 19.4626 67.6409 19.1063 66.8247 18.5363C66.8247 17.5526 66.8247 16.569 66.8247 15.5853C67.3196 16.0582 67.931 16.3751 68.5535 16.6279C69.3701 16.9611 70.2478 17.1601 71.1285 17.1223C71.4602 17.106 71.8002 17.0694 72.1061 16.9261C72.2933 16.8389 72.4643 16.6868 72.5265 16.4778C72.5899 16.2565 72.5696 15.9906 72.4108 15.8166C72.2402 15.6355 72.0293 15.4922 71.7945 15.4185C71.3291 15.2549 70.8561 15.1184 70.3869 14.9699C70.0652 14.866 69.7348 14.7887 69.4247 14.651C69.0304 14.4842 68.6204 14.3449 68.2584 14.1084C67.9425 13.8688 67.6289 13.6192 67.3707 13.3127C67.1897 13.1053 67.094 12.8389 67.0072 12.579C66.7858 11.8899 66.7605 11.1316 66.9576 10.4333C67.114 9.87522 67.4433 9.37324 67.8818 9.01178C68.4986 8.49866 69.2782 8.24548 70.0529 8.136Z" fill="#1B1B1B"/>
<path d="M80.8952 8.10378C82.4077 7.95888 83.9678 8.2447 85.3089 8.99509C85.3085 9.91944 85.3097 10.8438 85.3085 11.7685C84.6952 11.3808 84.0182 11.1133 83.3272 10.9178C82.6229 10.7236 81.8854 10.6213 81.1584 10.7053C80.9025 10.7411 80.6323 10.8 80.4317 10.9791C80.2396 11.1483 80.1762 11.4903 80.3533 11.6937C80.5136 11.872 80.7468 11.9433 80.9636 12.0189C81.6956 12.2884 82.4642 12.4409 83.1877 12.7379C83.856 13.0066 84.5054 13.3489 85.0584 13.8266C85.5326 14.2215 85.84 14.8063 85.943 15.4245C86.0598 16.1299 86.0141 16.8807 85.7266 17.5383C85.4845 18.0964 85.0664 18.5574 84.5815 18.8994C83.924 19.3675 83.1382 19.6108 82.3496 19.6943C81.6222 19.7676 80.886 19.7361 80.1639 19.6251C79.1806 19.471 78.2214 19.1139 77.3952 18.5359C77.3952 17.5523 77.3952 16.5686 77.3952 15.5849C77.8683 16.038 78.45 16.3473 79.0434 16.5949C79.8019 16.9118 80.6116 17.1196 81.4328 17.1259C81.7763 17.1271 82.1248 17.108 82.4576 17.0105C82.6378 16.9547 82.8181 16.8723 82.9514 16.7306C83.2012 16.4643 83.197 15.9703 82.9038 15.7386C82.6463 15.483 82.2947 15.3923 81.9654 15.284C81.4804 15.1327 80.9955 14.9799 80.5094 14.8334C80.1893 14.7474 79.8888 14.6025 79.581 14.4819C79.2739 14.3505 78.9573 14.2251 78.696 14.0077C78.4216 13.7908 78.1488 13.5667 77.9251 13.2928C77.7472 13.081 77.655 12.8115 77.5685 12.5504C77.3295 11.7817 77.3284 10.9234 77.6173 10.169C77.8425 9.57947 78.2733 9.08784 78.7951 8.76221C79.428 8.36333 80.1639 8.17663 80.8952 8.10378Z" fill="#1B1B1B"/>
<path d="M13.7934 8.22774C14.6841 8.22854 15.5749 8.22615 16.466 8.22893C17.9754 11.9844 19.4887 15.7384 20.9997 19.4935C20.0063 19.4935 19.013 19.4931 18.0192 19.4935C17.7153 18.7076 17.4132 17.9206 17.1089 17.1348C15.7732 17.1352 14.4374 17.1348 13.1017 17.1348C12.7985 17.921 12.4953 18.7072 12.1917 19.4935C11.2138 19.4931 10.2358 19.4935 9.25781 19.4935C10.7695 15.7384 12.2809 11.9828 13.7934 8.22774ZM13.9817 14.8359C14.731 14.8359 15.4804 14.8359 16.2293 14.8359C15.855 13.8383 15.4807 12.8407 15.1061 11.8431C14.7299 12.8403 14.3564 13.8383 13.9817 14.8359Z" fill="#1B1B1B"/>
<path d="M0 8.30762C0.925331 8.30762 1.85105 8.30762 2.77638 8.30762C2.77638 11.1945 2.77638 14.0814 2.77638 16.9683C4.50407 16.9683 6.23177 16.9683 7.95946 16.9683C7.95907 17.811 7.95946 18.6534 7.95946 19.4961C5.30605 19.4961 2.65302 19.4961 0 19.4961C0 15.7665 0 12.0372 0 8.30762Z" fill="#1B1B1B"/>
<path d="M34.7383 8.30772C35.659 8.30772 36.5797 8.30772 37.5004 8.30772C38.4104 9.73922 39.32 11.1715 40.2303 12.6026C41.1457 11.1711 42.061 9.74002 42.9756 8.30811C43.8901 8.30732 44.8047 8.30772 45.7193 8.30772C45.7189 12.0366 45.7193 15.765 45.7189 19.4938C44.7997 19.4938 43.8809 19.4938 42.9617 19.4938C42.9617 17.2208 42.9617 14.9477 42.9617 12.6747C42.3192 13.6747 41.6771 14.6746 41.035 15.6746C40.5243 15.6746 40.0136 15.6746 39.5033 15.6746C38.8404 14.675 38.1779 13.6751 37.515 12.6755C37.5143 14.9481 37.515 17.2212 37.5147 19.4938C36.5893 19.4938 35.6636 19.4938 34.7383 19.4938C34.7383 15.765 34.7383 12.0366 34.7383 8.30772Z" fill="#1B1B1B"/>
</g>
<defs>
<clipPath id="clip0">
<rect width="86" height="22" fill="white"/>
</clipPath>
</defs>
</svg>
